<?xml version="1.0" encoding="UTF-8"?>
<svg version="1.1" viewBox="0 0 1600 1592" width="1280" height="1280" xmlns="http://www.w3.org/2000/svg">
<path transform="translate(0)" d="m0 0h1600v1592h-1600v-1592z" fill="#FAFEFE"/>
<path transform="translate(469 215)" d="m0 0c0.87 0.01 1.73 0.01 2.62 0.02 2.8 0.14 5.56 0.37 8.34 0.64 6 0.56 12 0.84 18 1.06 1.13 0.05 2.27 0.09 3.43 0.13 3.7 0.14 7.4 0.27 11.1 0.4 1.28 0.04 2.55 0.09 3.87 0.13 33.6 1.15 67.1 1.2 101 0.37 0.82-0.02 1.63-0.04 2.47-0.06 2.25-0.06 4.5-0.12 6.76-0.19 1.88-0.05 1.88-0.05 3.8-0.11 2.85-0.01 2.85-0.01 4.91-1.2 3.57-0.37 7.16-0.43 10.8-0.57 1.13-0.04 2.26-0.08 3.43-0.12 21.2-0.69 42.4-0.76 63.6 0.12 1.4 0.06 1.4 0.06 2.83 0.12 6.15 0.31 6.15 0.31 8.42 1.45 2 0.27 4 0.49 6.01 0.68 1.84 0.18 1.84 0.18 3.72 0.37 1.96 0.19 1.96 0.19 3.96 0.38 17.1 1.71 17.1 1.71 24.6 2.69 1.12 0.15 2.24 0.3 3.39 0.45 2.36 0.43 2.36 0.43 3.36 1.43 3.83 0.63 7.66 1.19 11.5 1.72 5.03 0.74 9.63 1.87 14.4 3.57 3.96 1.35 8.07 2.1 12.2 2.96 2.63 0.67 4.54 1.51 6.92 2.75 2.22 0.81 4.45 1.6 6.69 2.37 5.57 1.97 11 4.08 16.3 6.63 0.64 0.3 1.28 0.61 1.94 0.92 10.8 5.29 21.3 11.1 30.8 18.4 3.55 2.68 7.18 5.26 10.8 7.85 2.01 1.51 3.68 3.03 5.42 4.83 1.04 0.84 2.08 1.67 3.12 2.5 20.8 17.8 35.1 45.4 41.9 71.5 0.31 1.04 0.63 2.08 0.95 3.16 3.73 13.6 4.52 27.4 4.39 41.5-0.03 2.73-0.02 5.46-0.02 8.19-0.02 11.8-0.47 22.9-4.32 34.2-0.64 2.56-1.27 5.12-1.88 7.69-3.77 15.5-3.77 15.5-7.57 21.7-1.8 3.05-3 6.13-4.24 9.44-0.43 1.16-0.87 2.32-1.32 3.52-0.33 0.88-0.65 1.76-0.99 2.67h-2c-0.17 0.59-0.34 1.18-0.52 1.79-1.5 4.92-3.08 8.27-6.48 12.2-1.04 1.97-2.06 3.97-3 6h-2c-0.25 0.7-0.5 1.4-0.75 2.12-1.42 3.27-3.12 6.02-5.25 8.88h-2c-0.27 0.8-0.54 1.61-0.81 2.43-0.39 0.85-0.79 1.7-1.19 2.57-0.99 0.33-1.98 0.66-3 1-0.33 0.82-0.66 1.65-1 2.5-0.33 0.82-0.66 1.65-1 2.5-0.99 0.33-1.98 0.66-3 1-0.69 1.32-1.35 2.66-2 4-2.85 3.72-5.69 6.76-9.38 9.7-2.45 1.96-4.77 4.07-7.1 6.16-1.52 1.14-1.52 1.14-3.52 1.14-0.31 0.86-0.31 0.86-0.62 1.75-1.9 3.09-4.28 4.44-7.38 6.25h-2l-1 3c-1.98 1.04-3.98 2.04-6 3-1.82 1.27-3.61 2.59-5.38 3.93-3.69 2.74-7.23 5.08-11.4 7.01-2.95 1.4-5.79 2.99-8.66 4.56-4.43 2.4-8.86 4.62-13.5 6.59-2.14 0.95-4.17 2.04-6.24 3.16-3.37 1.73-5.97 2.13-9.81 1.75l-1 3c-3 1.15-5.92 2.09-9 3-2.1 0.64-4.2 1.29-6.3 1.94-1.46 0.45-2.92 0.9-4.38 1.34-3.43 0.85-3.43 0.85-6.32 2.72-1.67 0.04-3.33 0.04-5 0v2c1.19-0.01 2.39-0.02 3.62-0.03 4.5-0.04 9-0.06 13.5-0.08 1.93-0.01 3.87-0.03 5.8-0.04 11.6-0.11 22.7 0.18 34.1 2.15-3.49 2.81-7.01 5.41-10.8 7.87-1.05 0.69-2.09 1.39-3.17 2.1-1.92 1.26-3.83 2.52-5.76 3.77-0.78 0.52-1.57 1.04-2.38 1.57-0.69 0.45-1.39 0.9-2.1 1.36-1.82 1.31-3.29 2.72-4.84 4.33-2.34 1.92-4.72 3.78-7.11 5.63-0.77 0.6-1.54 1.19-2.33 1.8-0.77 0.6-1.54 1.2-2.34 1.82-1.93 1.52-3.8 3.08-5.66 4.68-2.56 2.07-2.56 2.07-4.56 2.07-0.25 0.59-0.5 1.17-0.76 1.78-1.39 2.49-2.87 3.88-5.05 5.72-0.72 0.61-1.44 1.22-2.17 1.85-1.5 1.22-3.04 2.42-4.58 3.58-2.95 2.5-5.32 5.3-7.79 8.26-1.65 1.81-1.65 1.81-4.65 3.81-2.39 0.04-2.39 0.04-5.25-0.25-1.58-0.16-1.58-0.16-3.19-0.33-1.18-0.14-2.35-0.28-3.56-0.42-0.66-0.08-1.33-0.16-2.01-0.24-12.8-1.52-12.8-1.52-14-2.76-3.07-0.39-6.13-0.71-9.21-0.99-0.94-0.08-1.89-0.17-2.86-0.26-10.2-0.91-20.4-1.53-30.6-2-0.95-0.05-1.9-0.09-2.88-0.14-18-0.83-35.6-0.33-53.5 2.39 0.99-0.33 1.98-0.66 3-1l1-2c6.76-4.58 14.5-7.82 22-11 2.69-1.3 5.34-2.65 8-4 8.2-4.17 16.5-8.04 24.9-11.9 1.95-0.9 3.9-1.79 5.85-2.7 0.63-0.29 1.27-0.58 1.92-0.88 4.33-2.03 8.5-4.24 12.6-6.7 1.73-0.85 1.73-0.85 4.73-0.85v-2c1.95-0.98 3.9-1.95 5.86-2.9 4.93-2.39 9.53-5.14 14.1-8.1 1.39-0.88 2.79-1.75 4.19-2.63 0.65-0.41 1.31-0.82 1.99-1.25 1.53-0.94 3.08-1.85 4.63-2.75 2.16-1.23 2.16-1.23 3.51-2.73 2.09-2.04 4.35-3.65 6.74-5.33 0.88-0.62 1.76-1.25 2.66-1.89 2.28-1.42 2.28-1.42 4.28-1.42l1-3c1.99-1.35 3.99-2.68 6-4 1.11-1.06 2.19-2.15 3.25-3.25l2.75-2.75h2c0.27-0.6 0.54-1.2 0.81-1.81 1.21-2.24 2.37-3.44 4.19-5.19 3.07-3.62 6.05-7.29 9-11 0.62-0.77 1.24-1.53 1.88-2.31 6.06-7.26 6.06-7.26 10.1-15.7h2c0.43-1.67 0.43-1.67 0.88-3.38 1.12-3.62 1.12-3.62 3.12-5.62 4.84-10.1 8.14-21 11.1-31.8 0.58-2.06 1.23-4.11 1.94-6.13 1.03-3.28 1.55-6.43 2.01-9.83 0.83-6.09 0.83-6.09 1.94-7.19 0.39-2.59 0.72-5.15 1-7.75 0.09-0.8 0.17-1.6 0.26-2.42 0.99-9.59 1.44-19.2 1.74-28.8 0.02-0.71 0.05-1.41 0.07-2.13 1.03-35-7.22-65.1-29.1-92.9-0.99-1.01-1.99-2.02-3-3-0.66-0.87-1.32-1.74-2-2.63-6.3-7.62-15.5-14.4-24-19.4h-3l-2-3c-12-7.78-25.5-12.7-39-17-1.54-0.52-3.08-1.04-4.62-1.57-0.71-0.23-1.41-0.46-2.14-0.69-1.6-0.53-3.2-1.08-4.79-1.64-11.6-3.84-23.5-5.87-35.4-8.1-1.25-0.24-1.25-0.24-2.52-0.48-26.5-5.01-53.6-5.77-80.5-5.52-2.11 4.31-2.31 8.27-2.33 13-0.01 0.81-0.03 1.62-0.04 2.45l-0.06 5.37c-0.03 2.99-0.07 5.98-0.11 8.97-0.07 4.49-0.12 8.97-0.18 13.5-0.16 12.7-0.37 25.5-0.58 38.2-0.01 0.71-0.02 1.41-0.03 2.14-0.73 44.1-1.86 88.2-2.98 132-0.2 7.98-0.39 16-0.59 24-0.24 9.85-0.49 19.7-0.74 29.5-0.13 5.12-0.26 10.2-0.39 15.4-0.12 4.73-0.24 9.46-0.36 14.2-0.05 1.73-0.09 3.46-0.13 5.19l-0.18 7.02c-0.04 1.31-0.07 2.62-0.1 3.97-0.2 2.9-0.2 2.9-1.2 3.9-0.11 1.35-0.15 2.71-0.16 4.06-0.01 0.89-0.02 1.78-0.03 2.7-0.01 0.99-0.01 1.99-0.02 3.01-0.03 2.22-0.05 4.44-0.08 6.66-0.01 1.21-0.03 2.42-0.04 3.67-0.34 29.2-1.14 58.3-2.05 87.5-0.03 1.04-0.06 2.07-0.09 3.14-0.49 15.8-1.01 31.5-1.53 47.3-0.03 1.03-0.07 2.07-0.1 3.14-0.47 13.9-0.94 27.7-1.43 41.6-0.09 2.74-0.19 5.48-0.28 8.23-0.15 4.25-0.3 8.51-0.46 12.8-0.05 1.55-0.11 3.1-0.16 4.66-0.07 2.1-0.15 4.2-0.23 6.31-0.04 1.17-0.08 2.35-0.13 3.56-0.21 2.73-0.21 2.73-1.21 4.73-0.13 1.67-0.21 3.34-0.25 5.02-0.03 1.06-0.06 2.11-0.09 3.2-0.03 1.16-0.06 2.32-0.09 3.52-0.07 2.49-0.14 4.99-0.22 7.49-0.03 1.32-0.07 2.63-0.11 3.99-0.58 20.6-1.33 41.2-2.74 61.8-0.06 0.89-0.12 1.78-0.18 2.69-1.06 15.6-2.31 31.2-4.82 46.6-0.12 0.77-0.23 1.54-0.36 2.33-0.68 4.31-1.68 8.24-3.14 12.4-0.61 2.2-1.22 4.41-1.81 6.62-4.54 15.9-11.9 33.9-23.2 46.4-0.99 0.33-1.98 0.66-3 1-0.43 0.89-0.43 0.89-0.88 1.81-2.08 4.06-5.25 5.86-9.43 7.44-0.89 0.24-1.78 0.49-2.69 0.75l1 3c1.14 0.06 2.29 0.12 3.46 0.18 1.5 0.09 2.99 0.17 4.48 0.25 0.75 0.04 1.51 0.08 2.28 0.12 5.67 0.33 5.67 0.33 6.78 1.45 1.34 0.18 2.69 0.29 4.04 0.38 0.87 0.06 1.74 0.11 2.64 0.18 1.45 0.09 1.45 0.09 2.93 0.18 1.52 0.1 1.52 0.1 3.08 0.2 3.4 0.22 6.8 0.44 10.2 0.65 2.39 0.15 4.78 0.31 7.17 0.46 7.73 0.49 15.5 0.97 23.2 1.45 1.31 0.08 2.61 0.16 3.96 0.24 91.8 9.42 91.8 9.42 181-5.18 1.11-0.41 2.22-0.82 3.36-1.25 2.77-1.2 4.65-2.48 7.02-4.31 0.93-0.46 1.85-0.91 2.8-1.38 3.71-1.88 6.96-4.13 10.3-6.56 0.92-0.64 0.92-0.64 1.84-1.3 3.31-2.38 6.19-4.84 9.04-7.76 1.27-0.96 2.57-1.9 3.88-2.81 4.02-2.97 7.01-6.31 10.1-10.2 1.02-1.19 2.04-2.38 3.06-3.57 0.98-1.14 1.96-2.29 2.94-3.43 0.48-0.56 0.96-1.13 1.45-1.71 2.54-2.97 2.54-2.97 4.55-6.29h2l2-4c9.73 4.54 19.4 9.15 29 14 2.25 1.12 4.5 2.25 6.75 3.37 1.75 0.88 3.5 1.75 5.25 2.63v2h2v3c-0.57 0.31-1.14 0.63-1.72 0.95-0.77 0.43-1.55 0.86-2.34 1.3-0.82 0.45-1.64 0.91-2.49 1.37-2.1 1.18-4.18 2.4-6.26 3.63-2.53 1.38-4.39 2.3-7.19 2.75v2c-3.67 1.92-7.33 3.83-11 5.75-1.03 0.54-2.06 1.08-3.12 1.63-5.6 2.93-11.2 5.81-16.9 8.62-0.74 0.38-1.49 0.76-2.25 1.16-3.86 1.99-7.74 3.65-11.8 5.13-3.03 1.11-5.97 2.43-8.93 3.71-6.64 2.72-13.3 5.28-20 7.84-2.25 0.88-4.46 1.79-6.66 2.78-3.51 1.46-7.02 2.52-10.7 3.53-2.66 0.86-5.15 1.96-7.71 3.08-3.37 1.36-6.85 2.29-10.4 3.27-4.22 1.18-8.38 2.39-12.5 3.99-4.6 1.77-9.31 2.92-14.1 4.07-0.85 0.21-1.7 0.42-2.58 0.63-1.68 0.41-3.36 0.82-5.04 1.23-6.88 1.67-6.88 1.67-13.7 3.57-5.75 1.57-11.6 2.54-17.5 3.6-0.91 0.16-1.82 0.33-2.76 0.51-0.83 0.14-1.66 0.29-2.52 0.45-1.93 0.27-1.93 0.27-2.93 1.45-1.96 0.34-3.93 0.63-5.91 0.9-1.22 0.17-2.44 0.34-3.69 0.51-1.29 0.17-2.57 0.35-3.9 0.52-9.63 1.24-9.63 1.24-19.2 3.1-32.6 7.69-68.5 6.28-102 6.37-4.79 0.02-9.58 0.04-14.4 0.07-9.02 0.05-18 0.08-27 0.12-10.3 0.04-20.6 0.08-30.9 0.13-21.1 0.11-42.2 0.2-63.3 0.28 0.32-1.89 0.32-1.89 1-4 5.04-3 5.04-3 8-3l1-3c1.67-1.67 3.33-3.34 5-5 1.02-1.66 2.02-3.32 3-5l2-1c0.92-1.74 1.77-3.52 2.56-5.31 0.44-0.97 0.87-1.94 1.32-2.93 0.92-2.27 1.62-4.38 2.12-6.76h2c0.11-0.55 0.22-1.09 0.33-1.65 1.03-4.87 2.33-9.52 3.94-14.2 1.84-5.36 2.95-10.5 3.73-16.1l1-1c0.28-1.52 0.51-3.05 0.72-4.59 0.13-0.93 0.25-1.86 0.39-2.82 0.13-0.98 0.26-1.96 0.39-2.97 0.26-1.92 0.52-3.85 0.78-5.77 0.17-1.29 0.17-1.29 0.35-2.6 0.37-2.25 0.37-2.25 1.37-5.25 0.16-1.41 0.27-2.82 0.36-4.23 0.05-0.86 0.11-1.72 0.16-2.61 0.06-0.94 0.11-1.88 0.17-2.85 0.06-0.99 0.12-1.98 0.18-3 0.2-3.29 0.39-6.57 0.58-9.86 0.06-1.14 0.13-2.28 0.2-3.46 1.38-23.9 2.31-47.8 3.11-71.8 0.2-5.87 0.4-11.7 0.61-17.6 0.31-8.93 0.61-17.9 0.92-26.8 0.58-17.1 1.18-34.2 1.78-51.3 0.38-10.5 0.75-21 1.11-31.5 0.06-1.6 0.12-3.2 0.17-4.8 0.03-0.79 0.06-1.58 0.09-2.4 0.19-5.47 0.38-10.9 0.58-16.4 0.24-6.75 0.47-13.5 0.71-20.2l0.36-10.4c0.54-15.2 0.98-30.4 1.32-45.7 0.5-22.8 1.23-45.6 2.04-68.4 0.19-5.37 0.37-10.7 0.56-16.1 0.35-10.2 0.71-20.4 1.07-30.5 0.71-20.2 1.41-40.5 2.11-60.7 0.12-3.29 0.23-6.57 0.35-9.86 0.94-27 1.84-54.1 2.67-81.1 0.56-18.6 1.19-37.2 1.86-55.8 0.07-1.81 0.07-1.81 0.13-3.67 0.4-10.9 0.8-21.8 1.2-32.7 0.23-6.11 0.45-12.2 0.67-18.3 0.12-3.36 0.25-6.72 0.37-10.1 0.08-2.05 0.15-4.11 0.22-6.16 0.04-0.9 0.07-1.8 0.11-2.73 0.25-7.02 0.23-14 0.23-21h-115l-1-2c1.29-0.67 2.58-1.34 3.88-2 0.71-0.37 1.43-0.75 2.17-1.13 1.95-0.87 1.95-0.87 3.95-0.87v-2c1.07-0.52 2.14-1.03 3.25-1.57 3.6-1.79 7.05-3.76 10.5-5.81 5.13-3.04 10.4-5.71 15.8-8.26 2.33-1.27 3.66-2.51 5.5-4.36 2.31-0.75 4.64-1.42 7-2v-2c0.52-0.26 1.05-0.52 1.59-0.78 4.3-2.12 8.56-4.29 12.8-6.56 0.76-0.41 1.52-0.81 2.31-1.23 1.53-0.83 3.06-1.65 4.59-2.48 5.5-2.95 5.5-2.95 7.72-2.95v-2c1.11-0.54 2.23-1.07 3.38-1.63 3.22-1.61 6.3-3.36 9.37-5.25 4.76-2.9 9.67-5.39 14.7-7.83 7.01-3.54 7.01-3.54 10.6-3.48z" fill="#000204"/>
<path transform="translate(1099,575)" d="m0 0c1.42 0.28 2.83 0.55 4.25 0.81 5.4 1.16 9.92 3.57 14.8 6.19 0.82 0.42 1.64 0.83 2.49 1.26 4.54 2.36 7.62 4.4 10.5 8.74l1.75 1.75c2.05 3.7 2.07 7.14 1.25 11.2-1.57 3.07-3.7 5.45-6 8-0.68 0.81-1.35 1.61-2.05 2.44-4.5 5.23-9.24 9.54-14.7 13.7-2.88 2.35-5.02 4.86-7.24 7.83-0.99-0.33-1.98-0.66-3-1-0.22 0.58-0.44 1.15-0.67 1.75-1.74 2.95-3.84 4.35-6.64 6.31-0.95 0.67-1.89 1.35-2.87 2.04-7.27 4.9-7.27 4.9-9.82 4.9l-1 3c-3.06 1.19-3.06 1.19-6 2v2c-4.2 3.33-8.84 5.58-14 7v2c-0.95 0.45-1.9 0.91-2.88 1.38-3.12 1.42-3.12 1.42-5.12 3.62-1.12-4.75-1.12-4.75 0-7 0.12-1.96 0.18-3.92 0.19-5.88 0.01-1.04 0.03-2.09 0.04-3.17-0.23-2.94-0.59-4.53-2.23-6.95l-3-2v-2c-0.85-0.27-1.69-0.54-2.56-0.81-2.88-1-5.62-2.13-8.41-3.34-8.17-3.42-16.4-5.81-25-7.85-1.26-0.35-2.52-0.7-3.81-1.06-5.27-1.35-10.7-1.83-16.1-2.48-3.1-0.46-3.1-0.46-4.1-1.46-33.2-5.05-73.5-4.35-105 8-1.58 0.48-3.16 0.94-4.75 1.38-7.83 2.29-15.3 5.35-22.2 9.62-1.27 0.65-2.54 1.29-3.81 1.94-4.83 2.65-9.17 5.88-13.6 9.18-0.7 0.53-1.4 1.06-2.12 1.6-3.02 2.3-5.84 4.57-8.5 7.28-1.16 0.97-2.33 1.92-3.5 2.88-2.89 2.43-4.64 4.8-6.5 8.12h-2c-0.37 1.33-0.37 1.33-0.75 2.69-1.33 3.52-2.88 5.41-5.25 8.31-3.13 4.85-5.94 9.6-8 15-0.46 1.05-0.46 1.05-0.93 2.11-4.71 11-7.71 23-8.07 34.9-0.02 0.64-0.04 1.27-0.06 1.93-0.75 26.8 3.94 51.9 19.1 74.5 2.95 4.4 2.95 4.4 2.95 6.59h2c0.1 0.64 0.21 1.28 0.31 1.94 0.34 1.02 0.34 1.02 0.69 2.06 0.99 0.33 1.98 0.66 3 1 0.67 1.33 1.33 2.67 2 4 1.64 1.69 3.31 3.35 5 5 0.79 0.8 1.58 1.6 2.39 2.43 4.49 4.53 9.02 8.91 13.9 13 1.52 1.33 2.95 2.76 4.36 4.21 2.6 2.52 5.37 4.32 8.38 6.31l4 4c0.91 0.54 1.82 1.07 2.75 1.62 1.11 0.69 1.11 0.69 2.25 1.38v2c0.71 0.25 1.42 0.51 2.15 0.77 3.12 1.35 5.63 3.03 8.41 4.98 5.06 3.44 10.2 6.23 15.7 8.88 3.09 1.54 5.94 3.29 8.83 5.16 6.7 4.23 13.8 7.71 20.9 11.2 2.08 1.04 4.17 2.08 6.25 3.12 0.95 0.48 1.91 0.96 2.89 1.45 0.94 0.47 1.89 0.94 2.86 1.43 0.95 0.47 1.89 0.93 2.87 1.41 2.31 1.17 4.59 2.37 6.87 3.61 7.82 4.23 15.7 8.12 23.8 11.6 4.11 1.76 7.89 3.66 11.5 6.25 2.22 1.35 4.54 2.32 6.94 3.32 10.9 4.61 21.4 9.99 31.8 15.7 2.39 1.3 4.78 2.6 7.18 3.89l5.31 2.88c0.82 0.45 1.64 0.89 2.48 1.35 5.59 3.06 10.9 6.45 16.1 10 1.91 1.24 3.83 2.47 5.75 3.69 1.32 0.84 1.32 0.84 2.67 1.7 1.7 1.06 3.42 2.08 5.16 3.07 2.53 1.61 4.34 3.39 6.42 5.54 1.53 1.25 3.07 2.48 4.62 3.69 5.34 4.22 10.4 8.68 15.4 13.3 0.7 0.65 1.4 1.29 2.12 1.96 5.4 5.16 9.59 11 13.9 17 1.02 1.34 2.04 2.67 3.06 4 15.5 20.8 21 42.2 21.2 67.8 0.01 1.54 0.01 1.54 0.03 3.12-0.04 10.2-1.29 19.8-5.28 29.1-0.65 1.65-1.29 3.29-1.94 4.94-1.9 4.74-3.95 9.41-6.06 14.1h-2c-0.27 0.89-0.54 1.77-0.81 2.69-1.65 4.59-3.68 7.95-7.19 11.3l-2 3h-2c-0.37 1.07-0.37 1.07-0.75 2.17-1.39 3.14-3.09 5.47-5.25 8.14-0.7 0.89-1.4 1.77-2.12 2.68-0.62 0.66-1.24 1.33-1.88 2.01h-2c-0.27 0.8-0.54 1.61-0.81 2.44-0.39 0.84-0.79 1.69-1.19 2.56-0.99 0.33-1.98 0.66-3 1-0.69 1.32-1.35 2.66-2 4-3.11 3.95-6.44 7.44-10 11-0.88 1.1-1.76 2.2-2.62 3.31-0.79 0.89-1.57 1.78-2.38 2.69h-3v3c-0.74 0.25-1.49 0.49-2.25 0.75-3.05 1.39-4.46 2.82-6.75 5.25-1.16 1.01-2.32 2.01-3.5 3-2.05 1.73-3.93 3.45-5.81 5.38-1.69 1.62-1.69 1.62-3.69 1.62l-1 3c-1.3 0.93-2.62 1.84-3.98 2.68-3.67 2.39-7.12 5.09-10.6 7.71-2.39 1.61-2.39 1.61-4.39 1.61l-1 3c-1.71 1.32-1.71 1.32-3.81 2.56-1.03 0.62-1.03 0.62-2.08 1.26-1.41 0.78-2.83 1.53-4.28 2.24-2.05 1.05-3.24 2.28-4.83 3.94-3.1 2.7-3.65 3-8 3l1 3c-0.93 0.35-1.86 0.7-2.81 1.06-4.24 1.83-7.97 4.27-11.8 6.78-19.3 12.4-19.3 12.4-29.1 17-3.68 1.79-7.21 3.85-10.8 5.89-2.54 1.23-4.76 1.81-7.54 2.23v2c-0.81 0.33-1.62 0.65-2.45 0.99-1.07 0.44-2.14 0.87-3.24 1.32-1.05 0.43-2.11 0.86-3.2 1.3-2.87 1.28-5.44 2.74-8.11 4.39-1.66 0.69-3.33 1.35-5 2-1.42 0.62-2.84 1.24-4.25 1.88-0.78 0.34-1.56 0.69-2.36 1.05-1.55 0.69-3.09 1.4-4.62 2.11-4.66 2.15-9.26 3.81-14.2 5.15-2.64 0.84-5.13 1.92-7.67 3.04-3.18 1.31-6.46 2.28-9.76 3.27-4.3 1.31-8.58 2.64-12.8 4.19-4.77 1.64-9.7 2.22-14.7 2.88-2.54 0.15-2.54 0.15-3.62 1.43-9.55 1.9-19 2.32-28.7 2.25-1.3-0.01-2.6-0.01-3.94-0.02-12.7-0.12-25.1-0.66-37.4-4.23-3.3-0.55-6.6-1-9.91-1.44-3.09-0.56-3.09-0.56-5.44-1.5-4.43-1.77-9.12-2.52-13.8-3.47-5.19-1.1-9.93-2.64-14.9-4.59-1.41-0.49-2.83-0.97-4.25-1.44-0.75-0.24-1.49-0.49-2.26-0.74-1.83-0.6-3.65-1.2-5.48-1.79-1.04-0.34-2.07-0.68-3.13-1.03-0.96-0.31-1.91-0.62-2.89-0.94-16.6-5.88-40.2-14.8-49.3-30.8-3.26-7.08-1.98-13.8 0.4-21 3.18-7.98 10.1-14.3 16.9-19.3h2l1-3c1.32-0.68 2.66-1.35 4-2 1.36-1.31 2.69-2.65 4-4 2.29-1.94 4.36-3.69 7.06-5 2.47-1.28 4.01-3.01 5.94-5 1.66-1.35 3.32-2.68 5-4 0.73-0.59 1.46-1.18 2.22-1.79 5.26-4.23 10.6-8.38 15.9-12.5 4.29-3.28 8.48-6.67 12.6-10.1 2.32-1.67 4.53-2.64 7.22-3.59-0.35 0.66-0.7 1.33-1.06 2.01-0.45 0.88-0.91 1.77-1.38 2.68-0.45 0.87-0.9 1.74-1.37 2.63-2.79 6.27-3.19 13.2-1.13 19.7 5.5 13 23.2 22 35.5 27 1.22 0.48 1.22 0.48 2.45 0.96 1.75 0.8 3.5 1.62 5.25 2.44 4.18 1.91 8.34 3.51 12.7 4.88 2.03 0.68 2.03 0.68 5.22 2.18 4.57 2.05 9.51 2.8 14.4 3.75 3.4 0.75 3.4 0.75 6.21 1.73 3.24 1.04 6.28 1.59 9.65 2.06 1.19 0.16 2.39 0.33 3.62 0.51 1.23 0.17 2.46 0.34 3.73 0.51 2.47 0.34 4.93 0.69 7.4 1.04 1.08 0.15 2.17 0.3 3.29 0.45 2.5 0.45 2.5 0.45 3.5 1.45 2.17 0.05 4.33 0.04 6.5 0s4.33-0.05 6.5 0l1 1c1.9 0.1 3.81 0.13 5.71 0.13 1.17 0 2.33 0.01 3.52 0.01 1.84-0.01 1.84-0.01 3.71-0.02 1.22 0.01 2.44 0.01 3.69 0.02 1.16 0 2.33-0.01 3.52-0.01h3.25c2.58 0.05 2.58 0.05 4.6-1.13 1.63-0.16 3.26-0.27 4.9-0.36 21.3-1.27 42.8-3.88 63.1-10.6 1.22-0.37 1.22-0.37 2.47-0.74 5.05-1.55 9.54-3.75 14.2-6.19 2.74-1.27 5.3-1.83 8.31-2.07v-2c1.29-0.67 2.58-1.34 3.88-2 0.71-0.37 1.43-0.74 2.17-1.12 1.95-0.88 1.95-0.88 3.95-0.88v-2c1.62-1.19 1.62-1.19 3.88-2.56 10.5-6.83 20.4-16.4 26.8-27.3 0.66-1.06 0.66-1.06 1.34-2.14h2c0.18-0.57 0.36-1.14 0.55-1.72 1.17-3.59 2.36-7.07 3.89-10.5 11.5-26.4 10.4-59.1 0.56-85.8-1.5-3.44-3.13-6.74-5-10-0.64-1.13-0.64-1.13-1.3-2.29-2.26-3.6-4.77-6.99-7.32-10.4-0.54-0.7-1.07-1.41-1.61-2.14-4.31-5.68-8.84-11-13.8-16.2-0.87-0.91-1.73-1.82-2.62-2.75-2.49-2.36-5.07-4.57-7.69-6.78-1.46-1.27-2.84-2.65-4.19-4.03-2.06-2.01-3.96-3.52-6.31-5.13-1.58-1.14-1.58-1.14-3.19-2.31v-2c-0.73-0.27-1.47-0.53-2.22-0.8-2.76-1.19-4.82-2.54-7.22-4.32-4.73-3.41-9.64-6.31-14.7-9.13-2.35-1.3-4.61-2.58-6.73-4.23-2.52-1.83-5.15-3.11-7.94-4.47-3.47-1.7-6.87-3.54-10.3-5.36-7.57-4.03-15.2-7.89-22.9-11.7-1.95-0.97-3.91-1.95-5.86-2.93-1.34-0.67-2.69-1.35-4.04-2.02-3.36-1.68-6.72-3.36-10.1-5.05-1.32-0.67-2.65-1.34-3.97-2-0.65-0.33-1.3-0.66-1.98-1-4.94-2.47-9.94-4.81-15-7.12-5.52-2.56-10.7-5.34-15.9-8.58-3.06-1.76-6.23-2.98-9.55-4.15-2.41-1.02-4.58-2.17-6.86-3.46-5.85-3.31-11.9-6.07-18-8.85-6.01-2.8-11.4-6.07-16.8-9.84-1.64-1.02-3.28-2.02-4.94-3-1.26-0.75-1.26-0.75-2.55-1.52-1.59-0.94-3.19-1.86-4.8-2.77-7.83-4.48-14.9-9.95-22-15.4-1.36-1.03-2.75-2.03-4.15-3.01-0.5-0.41-1-0.83-1.52-1.26v-2c-1.08-0.31-1.08-0.31-2.19-0.62-3.03-1.49-4.5-3.21-6.54-5.86-1.4-1.77-1.4-1.77-4.08-3.77-0.72-0.58-1.45-1.15-2.19-1.75v-2c-0.58-0.24-1.15-0.49-1.75-0.74-16.4-9.16-28.3-34.6-33.6-51.6-0.47-1.72-0.47-1.72-1.61-2.71-3.81-17.8-4.02-35.8-1.69-53.8 0.12-0.92 0.24-1.83 0.36-2.77 0.77-5.3 2.06-9.57 4.33-14.4 0.49-1.59 0.95-3.2 1.38-4.81 1.56-5.43 3.98-10.2 6.62-15.2 0.47-0.99 0.95-1.98 1.44-3 2.32-4.46 4.93-8.72 7.56-13 0.37-0.61 0.74-1.23 1.12-1.86 11-18.1 11-18.1 16.9-24.1h2c0.26-0.73 0.52-1.46 0.79-2.22 2.83-6.52 8.1-11.9 13.2-16.8 0.74-0.76 1.49-1.53 2.25-2.31 2.34-2.29 4.72-4.42 7.19-6.57 2.74-2.4 5.18-4.76 7.44-7.62 3.25-3.99 7.31-6.7 11.5-9.61 2.63-1.82 2.63-1.82 4.79-4.09 2-2 3.14-2.16 5.8-2.8l1-3c1.32-0.7 2.65-1.37 4-2 0.42-0.43 0.85-0.85 1.28-1.29 5.1-5.07 17.4-16.7 24.7-16.7v-2c0.52-0.25 1.03-0.5 1.56-0.75 2.07-1.06 4.06-2.19 6.06-3.37 3.38-1.88 3.38-1.88 5.38-1.88v-2c7.03-4.06 14.1-8.08 21.2-12 1.04-0.58 2.09-1.15 3.17-1.75 2.64-1.25 2.64-1.25 5.64-1.25v-2c0.65-0.29 1.31-0.58 1.98-0.88 6.05-2.72 12-5.57 17.9-8.59 13.6-6.67 27.9-12.5 42.4-16.7 2.96-0.88 5.81-1.93 8.68-3.04 7.02-2.66 13.9-4.48 21.3-5.82 1.75-0.32 3.5-0.65 5.24-0.98 0.76-0.13 1.52-0.27 2.3-0.41 2.27-0.58 4.07-1.5 6.15-2.55 33.1-8.64 82.6-7.04 115 4z" fill="#000204"/>
<path transform="translate(935 665)" d="m0 0c0.78-0.03 1.56-0.05 2.36-0.08 4.15 0.59 6.63 2.52 9.32 5.64 0.62 0.89 1.24 1.78 1.88 2.69 0.69 0.98 1.38 1.96 2.08 2.97 2.51 3.72 4.95 7.47 7.32 11.3 1.17 1.85 2.35 3.7 3.54 5.54 4.84 7.42 8.95 15 12.2 23.2 0.3 0.77 0.61 1.53 0.93 2.32 0.66 1.67 1.33 3.33 1.99 5 0.7 1.75 1.42 3.5 2.16 5.23 1.97 4.73 3.43 9.25 4.43 14.3 0.48 2.14 1.12 4.12 1.86 6.18 3.34 9.7 5.85 20.1 6.45 30.3 0 1.72 0 1.72 1.18 2.69 2.02 11.1 2.29 22.1 2.2 33.3-0.02 2.57-0.02 5.15-0.02 7.72-0.04 21.7-0.04 21.7-2.18 26-0.49 2.96-0.94 5.91-1.38 8.87-1.14 7.52-2.63 14.8-4.62 22.1-0.57 2.25-1.13 4.5-1.69 6.75-0.44 1.75-0.88 3.5-1.31 5.25-1.63-0.62-3.25-1.25-4.88-1.87-0.9-0.35-1.81-0.7-2.74-1.06-2.38-1.07-2.38-1.07-4.38-3.07-1.93-0.73-3.85-1.46-5.79-2.16-3.55-1.35-6.89-3.06-10.3-4.78-0.66-0.33-1.33-0.67-2.02-1.01-4.39-2.22-8.65-4.6-12.9-7.05-2.43-1.33-4.87-2.64-7.31-3.94-0.66-0.34-1.31-0.69-1.98-1.05-4.48-2.38-9-4.69-13.6-6.9-5.49-2.82-10.6-6.32-15.7-9.68-2.24-1.6-2.24-1.6-4.42-1.43l-3-3c-1.34-0.91-2.69-1.81-4.05-2.69-11.1-7.42-11.1-7.42-14-10.3-0.28-1.9-0.49-3.81-0.69-5.72-0.12-1.18-0.24-2.36-0.37-3.57-0.25-2.49-0.5-4.97-0.75-7.46-0.66-6.27-1.52-12.2-3.19-18.2-0.5-2.5-0.97-5-1.44-7.5-0.9-4.67-1.91-9.14-3.75-13.5-1.04-2.49-1.91-5.04-2.81-7.59-1.44-3.95-3.02-7.65-5-11.4-0.77-1.58-1.54-3.17-2.31-4.75-4.54-9.04-9.84-17.3-16.2-25.1-3.53-4.54-3.53-4.54-3.22-7.55 5.71-19.6 22.8-31.4 39.8-40.7 4.81-2.52 9.75-4.23 14.9-5.85 0.92-0.33 1.85-0.65 2.81-0.99 3.52-1.11 7-1.83 10.6-2.51 3.81-0.72 7.51-1.48 11.2-2.55 6.09-1.73 12.3-1.99 18.6-2.2z" fill="#000204"/>
</svg>
